<?xml version="1.0" encoding="utf-8"?>
<!-- Generator: Adobe Illustrator 16.0.0, SVG Export Plug-In . SVG Version: 6.00 Build 0)  -->
<!DOCTYPE svg PUBLIC "-//W3C//DTD SVG 1.1//EN" "http://www.w3.org/Graphics/SVG/1.1/DTD/svg11.dtd">
<svg version="1.1" id="Layer_1" xmlns="http://www.w3.org/2000/svg" xmlns:xlink="http://www.w3.org/1999/xlink" x="0px" y="0px"
	 width="33.32px" height="37.614px" viewBox="0 0 33.32 37.614" enable-background="new 0 0 33.32 37.614" xml:space="preserve">
<g>
	<defs>
		<rect id="SVGID_1_" width="33.32" height="37.614"/>
	</defs>
	<clipPath id="SVGID_2_">
		<use xlink:href="#SVGID_1_"  overflow="visible"/>
	</clipPath>
	<path clip-path="url(#SVGID_2_)" fill="#FDC305" d="M6.07,20.724l0.053-2.267c6.667-0.909,13.437-1.369,20.165-1.331
		c-0.01,0.606-0.028,1.213-0.058,1.821c0,0,2.923-1.349,6.036-1.814c-2.367-6.323-8.464-10.825-15.613-10.825
		c-8.323,0-15.221,6.102-16.466,14.076C2.359,20.521,6.07,20.724,6.07,20.724"/>
	<path clip-path="url(#SVGID_2_)" fill="#FDC305" d="M27.238,24.228c-1.16,1.283-1.392,1.199-1.392,3.455
		c0,0.908,0.027,4.898,0.036,9.173c4.482-2.987,7.438-8.089,7.438-13.879c0-1.053-0.099-2.081-0.285-3.079
		C31.222,20.961,28.224,23.136,27.238,24.228"/>
	<path clip-path="url(#SVGID_2_)" fill="#FDC305" d="M6.358,25.715c0,0-3.792-1.44-5.184-1.824C0.748,23.773,0.37,23.666,0,23.608
		c0.225,6.049,3.673,11.273,8.677,14.006L6.358,25.715z"/>
	<path clip-path="url(#SVGID_2_)" fill="#F06351" d="M26.295,17.122c0.145-8.48-1.402-16.467-1.402-16.467s-0.144-1.296-0.864-0.241
		c-0.72,1.057-1.2,3.937-1.2,3.937c-7.439-0.433-12.768,0.335-12.768,0.335C9.245,1.951,7.853,0.75,7.181,1.039
		C6.509,1.327,6.46,4.351,6.46,4.351L6.129,18.453C12.795,17.543,19.566,17.083,26.295,17.122"/>
	<path clip-path="url(#SVGID_2_)" d="M12.413,13.998c-0.046-0.091,1.022,0.681,1.406,0.921c0.384,0.24,0.61,0.423,0.61,0.591
		s-0.264,0.336-0.624,0.336c-0.36,0-0.912-0.12-0.96-0.264c0,0,0.6-0.024,0.936-0.024h0.288
		C14.069,15.558,12.677,14.526,12.413,13.998"/>
	<path clip-path="url(#SVGID_2_)" d="M19.886,14.111c0,0-1.047,1.274-1.086,1.333s-0.165,0.341,0.185,0.292
		c0.352-0.048,1.111-0.224,1.219-0.282c0.107-0.059,0.069-0.196-0.116-0.176c-0.205,0.022-0.683,0.049-0.985,0.107l0.841-1.26
		C19.942,14.125,19.969,14.006,19.886,14.111"/>
	<path clip-path="url(#SVGID_2_)" d="M16.754,20.203c0,0,0.81-0.352,1.089-1.008c0.279-0.657,0.036-0.912-0.441-0.978
		c-0.477-0.066-1.341-0.03-1.737,0.339s-0.342,0.729-0.054,0.954C15.898,19.734,16.457,20.112,16.754,20.203"/>
	<path clip-path="url(#SVGID_2_)" fill="#F06351" d="M16.349,21.454c0,0-0.18,0.371-0.458,0.594
		c-0.244,0.193-0.567,0.364-1.018,0.387c-0.638,0.033-1.056-0.169-1.452-0.445c-0.202-0.142-0.395-0.255-0.532-0.441
		c-0.157-0.183-0.356-0.253-0.356-0.253s0.747,4.099,2.566,4.747c1.817,0.647,2.144-0.75,2.2-1.134c0.048-0.325,0-2.082-0.82-3.224
		C16.464,21.381,16.448,21.584,16.349,21.454"/>
	<path clip-path="url(#SVGID_2_)" d="M14.708,22.586h-0.016c-1.293-0.011-2.291-1.361-2.333-1.418
		c-0.047-0.065-0.032-0.155,0.032-0.202s0.154-0.032,0.201,0.032c0.01,0.013,0.956,1.291,2.104,1.3h0.012
		c0.584,0,1.132-0.333,1.627-0.99l0.143-0.188l0.103,0.213c0.004,0.007,0.373,0.756,0.988,0.795c0.496,0.03,1.053-0.412,1.616-1.279
		c0.043-0.065,0.132-0.085,0.199-0.042c0.065,0.043,0.085,0.134,0.042,0.199c-0.633,0.974-1.265,1.448-1.877,1.409
		c-0.563-0.036-0.942-0.495-1.117-0.765C15.913,22.271,15.333,22.586,14.708,22.586"/>
	<path clip-path="url(#SVGID_2_)" fill="#F06351" d="M26.236,18.924c0,0-2.544,2.245-5.063,5.191
		c-2.521,2.947-5.292,4.876-5.292,4.876c-0.216-0.525-1.62-1.508-1.62-1.508s-3.132-2.14-5.184-3.824
		c-1.179-0.967-2.346-2.166-3.126-3.011c-0.292-0.016-1.065-0.057-2.006-0.109c4.692,6.97,11.972,8.803,11.972,8.803
		c0.864-0.141,3.276-1.858,5.076-3.263c1.801-1.402,4.752-4.524,5.94-5.892c0.601-0.693,0.944-1.42,1.136-1.971
		C26.96,18.599,26.236,18.924,26.236,18.924"/>
</g>
</svg>
