<?xml version="1.0" encoding="utf-8"?>
<!-- Generator: Adobe Illustrator 16.0.0, SVG Export Plug-In . SVG Version: 6.00 Build 0)  -->
<!DOCTYPE svg PUBLIC "-//W3C//DTD SVG 1.1//EN" "http://www.w3.org/Graphics/SVG/1.1/DTD/svg11.dtd">
<svg version="1.1" id="Layer_1" xmlns="http://www.w3.org/2000/svg" xmlns:xlink="http://www.w3.org/1999/xlink" x="0px" y="0px"
	 width="100.501px" height="18.086px" viewBox="0 0 100.501 18.086" enable-background="new 0 0 100.501 18.086"
	 xml:space="preserve">
<g>
	<defs>
		<rect id="SVGID_1_" width="100.501" height="18.086"/>
	</defs>
	<clipPath id="SVGID_2_">
		<use xlink:href="#SVGID_1_"  overflow="visible"/>
	</clipPath>
	<path clip-path="url(#SVGID_2_)" fill="#111111" d="M1.224,16.576C0.409,15.571,0,14.12,0,12.224V5.884
		c0-1.94,0.405-3.405,1.214-4.397C2.021,0.497,3.402,0,5.358,0c1.866,0,3.189,0.442,3.969,1.325
		c0.778,0.883,1.168,2.134,1.168,3.755V6.6H6.638V4.842c0-0.68-0.074-1.202-0.221-1.563c-0.148-0.362-0.5-0.543-1.058-0.543
		c-0.559,0-0.927,0.192-1.103,0.575C4.08,3.694,3.992,4.227,3.992,4.907v8.273c0,0.692,0.091,1.226,0.275,1.595
		s0.547,0.554,1.092,0.554c0.543,0,0.892-0.185,1.047-0.554c0.154-0.369,0.232-0.902,0.232-1.595v-1.847h3.858v1.52
		c0,1.649-0.39,2.935-1.168,3.854c-0.78,0.92-2.103,1.379-3.969,1.379C3.417,18.086,2.04,17.583,1.224,16.576"/>
	<path clip-path="url(#SVGID_2_)" fill="#111111" d="M15.196,0.239h4.496l3.331,17.586h-3.638l-0.596-3.712h-2.623l-0.618,3.712
		h-3.726L15.196,0.239z M18.415,11.789l-0.947-6.86l-0.949,6.86H18.415z"/>
	<polygon clip-path="url(#SVGID_2_)" fill="#111111" points="25.751,3.127 23.062,3.127 23.062,0.239 32.388,0.239 32.388,3.127 
		29.72,3.127 29.72,17.825 25.751,17.825 	"/>
	<polygon clip-path="url(#SVGID_2_)" fill="#111111" points="39.532,0.239 46.456,0.239 46.456,2.063 42.022,2.063 42.022,7.882 
		45.617,7.882 45.617,9.619 42.022,9.619 42.022,16.067 46.5,16.067 46.5,17.825 39.532,17.825 	"/>
	<polygon clip-path="url(#SVGID_2_)" fill="#111111" points="48.489,0.239 50.186,0.239 55.259,11.92 55.259,0.239 57.331,0.239 
		57.331,17.825 55.742,17.825 50.604,5.818 50.604,17.825 48.489,17.825 	"/>
	<polygon clip-path="url(#SVGID_2_)" fill="#111111" points="59.812,0.239 66.736,0.239 66.736,2.063 62.303,2.063 62.303,7.882 
		65.896,7.882 65.896,9.619 62.303,9.619 62.303,16.067 66.78,16.067 66.78,17.825 59.812,17.825 	"/>
	<path clip-path="url(#SVGID_2_)" fill="#111111" d="M68.77,0.239h3.592c1.809,0,3.136,0.365,3.981,1.096
		c0.844,0.731,1.268,1.921,1.268,3.572c0,2.259-0.736,3.625-2.206,4.103l2.535,8.815h-2.402L73.2,9.574h-1.939v8.251H68.77V0.239z
		 M72.207,7.816c1.073,0,1.843-0.21,2.306-0.63c0.464-0.42,0.693-1.179,0.693-2.279c0-0.724-0.081-1.292-0.242-1.704
		c-0.161-0.412-0.447-0.717-0.859-0.912c-0.412-0.196-0.993-0.293-1.743-0.293h-1.101v5.818H72.207z"/>
	<path clip-path="url(#SVGID_2_)" fill="#111111" d="M80.812,16.533c-0.721-1.006-1.081-2.499-1.081-4.483V6.167
		c0-1.361,0.145-2.479,0.432-3.356c0.286-0.875,0.778-1.548,1.477-2.018c0.697-0.47,1.656-0.705,2.877-0.705
		c1.647,0,2.833,0.412,3.562,1.237c0.726,0.824,1.09,2.12,1.09,3.886v0.651h-2.336V5.32c0-0.84-0.053-1.487-0.155-1.944
		c-0.103-0.455-0.32-0.799-0.65-1.031c-0.331-0.232-0.819-0.347-1.467-0.347c-0.69,0-1.205,0.155-1.544,0.467
		c-0.338,0.311-0.555,0.726-0.649,1.248c-0.096,0.52-0.145,1.216-0.145,2.085v6.512c0,1.347,0.166,2.312,0.496,2.898
		c0.331,0.586,0.968,0.879,1.908,0.879c0.926,0,1.562-0.318,1.908-0.955c0.344-0.636,0.518-1.657,0.518-3.061v-1.216h-2.271V9.119
		H89.3v8.706h-1.563l-0.243-2.019c-0.561,1.49-1.618,2.236-3.175,2.236C82.701,18.043,81.532,17.539,80.812,16.533"/>
	<polygon clip-path="url(#SVGID_2_)" fill="#111111" points="94.281,11.616 90.425,0.239 92.739,0.239 95.473,8.728 98.164,0.239 
		100.501,0.239 96.665,11.616 96.665,17.825 94.281,17.825 	"/>
</g>
</svg>
